HIERARCHY
ROOT root
{
	OFFSET 0.000000 0.000000 0.000000
	CHANNELS 6 Xposition Yposition Zposition Zrotation Yrotation Xrotation
	JOINT lhip
	{
		OFFSET 0.058581 -0.082280 -0.017664
		CHANNELS 3 Zrotation Yrotation Xrotation
		JOINT lknee
		{
			OFFSET 0.043451 -0.386469 0.008037
			CHANNELS 3 Zrotation Yrotation Xrotation
			JOINT lankle
			{
				OFFSET -0.014790 -0.426874 -0.037428
				CHANNELS 3 Zrotation Yrotation Xrotation
				JOINT ltoe
				{
					OFFSET 0.041054 -0.060286 0.122042
					CHANNELS 3 Zrotation Yrotation Xrotation
					End Site
					{
						OFFSET 0.000000 0.000000 0.000000
					}
				}
			}
		}
	}
	JOINT rhip
	{
		OFFSET -0.060310 -0.090513 -0.013543
		CHANNELS 3 Zrotation Yrotation Xrotation
		JOINT rknee
		{
			OFFSET -0.043257 -0.383688 -0.004843
			CHANNELS 3 Zrotation Yrotation Xrotation
			JOINT rankle
			{
				OFFSET 0.019056 -0.420046 -0.034562
				CHANNELS 3 Zrotation Yrotation Xrotation
				JOINT rtoe
				{
					OFFSET -0.034840 -0.062106 0.130323
					CHANNELS 3 Zrotation Yrotation Xrotation
					End Site
					{
						OFFSET 0.000000 0.000000 0.000000
					}
				}
			}
		}
	}
	JOINT lowerback
	{
		OFFSET 0.004439 0.124404 -0.038385
		CHANNELS 3 Zrotation Yrotation Xrotation
		JOINT upperback
		{
			OFFSET 0.004488 0.137956 0.026820
			CHANNELS 3 Zrotation Yrotation Xrotation
			JOINT chest
			{
				OFFSET -0.002265 0.056032 0.002855
				CHANNELS 3 Zrotation Yrotation Xrotation
				JOINT lowerneck
				{
					OFFSET -0.013390 0.211636 -0.033468
					CHANNELS 3 Zrotation Yrotation Xrotation
					JOINT upperneck
					{
						OFFSET 0.010113 0.088937 0.050410
						CHANNELS 3 Zrotation Yrotation Xrotation
						End Site
						{
							OFFSET 0.000000 0.000000 0.000000
						}
					}
				}
				JOINT lclavicle
				{
					OFFSET 0.071702 0.114000 -0.018898
					CHANNELS 3 Zrotation Yrotation Xrotation
					JOINT lshoulder
					{
						OFFSET 0.122921 0.045205 -0.019046
						CHANNELS 3 Zrotation Yrotation Xrotation
						JOINT lelbow
						{
							OFFSET 0.255332 -0.015649 -0.022946
							CHANNELS 3 Zrotation Yrotation Xrotation
							JOINT lwrist
							{
								OFFSET 0.265709 0.012698 -0.007375
								CHANNELS 3 Zrotation Yrotation Xrotation
								End Site
								{
									OFFSET 0.000000 0.000000 0.000000
								}
							}
						}
					}
				}
				JOINT rclavicle
				{
					OFFSET -0.082954 0.112472 -0.023707
					CHANNELS 3 Zrotation Yrotation Xrotation
					JOINT rshoulder
					{
						OFFSET -0.113228 0.046853 -0.008472
						CHANNELS 3 Zrotation Yrotation Xrotation
						JOINT relbow
						{
							OFFSET -0.260127 -0.014369 -0.031269
							CHANNELS 3 Zrotation Yrotation Xrotation
							JOINT rwrist
							{
								OFFSET -0.269108 0.006794 -0.006027
								CHANNELS 3 Zrotation Yrotation Xrotation
								End Site
								{
									OFFSET 0.000000 0.000000 0.000000
								}
							}
						}
					}
				}
			}
		}
	}
}
MOTION
Frames: 10
Frame Time: 0.033333
-0.757217 1.006457 0.809157 66.004698 -4.870955 103.383184 6.950346 -16.835721 -60.468483 -6.141650 9.058751 71.433001 9.890474 19.382323 -36.955102 0.000000 -0.000000 0.000000 -11.586485 3.561122 -65.220333 0.168403 -11.079425 72.214231 -3.533780 -12.052448 -38.489635 0.000000 -0.000000 0.000000 1.455274 -2.412033 30.208797 -1.394767 -2.484773 -7.177398 0.329493 -0.953439 -7.958107 -10.033932 4.693243 -9.883886 4.388661 7.799345 -27.387324 8.952013 -2.729739 -4.064038 -77.391132 -10.058467 23.690967 12.774047 -63.747883 -2.452405 -44.008876 -14.776766 -23.245151 -11.545147 8.944151 -2.845332 64.611147 13.147433 19.838588 21.252280 65.064658 28.927156 32.102046 22.460444 -42.196807 
-0.755381 1.002919 0.810717 65.912201 -4.802903 103.301815 6.517105 -16.592663 -59.702690 -7.318212 8.206015 70.950318 9.419377 20.864053 -37.120840 0.000000 -0.000000 0.000000 -10.768242 3.816167 -64.615819 0.971354 -10.174715 71.721100 -3.068407 -12.903892 -38.473659 0.000000 -0.000000 0.000000 1.600042 -2.755587 30.359074 -1.705354 -1.896507 -8.696030 -0.078414 -0.767999 -7.153945 -10.456372 5.466312 -9.009995 3.482197 9.938213 -26.503636 7.884045 1.759848 -4.667715 -69.149979 -8.696267 19.813527 7.408648 -57.393379 6.625187 -42.012596 -9.320286 -14.481654 -9.909323 4.447631 -1.747765 57.150758 10.188265 18.815333 31.113235 56.236901 46.755990 33.718894 18.001836 -28.571732 
-0.754043 1.000400 0.811002 65.671031 -4.761624 103.463742 5.916121 -16.296075 -59.370916 -8.242358 7.118894 70.863749 9.169363 22.163156 -37.207004 0.000000 -0.000000 0.000000 -9.907870 3.625763 -64.437218 1.428434 -9.106189 71.467631 -2.642969 -13.857994 -38.593952 0.000000 -0.000000 0.000000 1.946051 -3.134100 30.753243 -2.279873 -1.482049 -10.900349 -0.333451 -0.817223 -6.112755 -10.941931 7.425173 -8.870746 2.087663 12.468128 -26.114097 6.444082 5.567618 -5.773831 -59.354540 -7.022540 14.631257 5.997331 -51.566443 10.814418 -34.975787 -4.164358 -1.492511 -8.386514 0.734938 -0.445146 48.544424 8.848728 16.461794 32.660638 46.945024 58.681660 30.170711 11.045850 -8.714470 
-0.752401 0.998076 0.810892 65.316694 -4.796124 103.673524 5.713746 -16.166721 -59.174443 -9.101776 6.651291 70.613356 8.459320 23.238848 -37.449346 0.000000 -0.000000 0.000000 -9.166419 3.453119 -64.334621 1.995389 -7.998734 71.088560 -2.478728 -14.611926 -38.519907 0.000000 -0.000000 0.000000 1.945839 -3.341660 31.150717 -2.741779 -1.354819 -12.095496 -0.094784 -1.227515 -5.658317 -11.522044 10.367609 -9.790128 0.472909 14.622815 -27.032334 4.786774 8.241095 -6.710482 -49.696943 -4.192447 9.099208 8.596291 -46.100091 11.737144 -20.586561 -4.600252 14.126768 -6.907922 -1.224765 0.509786 40.417368 7.939715 13.267716 25.607169 36.878271 57.079297 19.860400 9.036713 5.489071 
-0.750753 0.996733 0.810653 64.765988 -4.429959 104.196390 5.642430 -15.721221 -59.372077 -9.276992 5.864221 70.596007 7.889232 23.942954 -37.632594 0.000000 -0.000000 0.000000 -8.575452 3.533159 -64.661599 2.786838 -7.490037 70.590709 -2.251397 -15.248776 -38.671603 0.000000 -0.000000 0.000000 2.051313 -3.282209 31.533115 -2.558422 -1.445670 -12.913671 0.768761 -1.838655 -5.832732 -13.171838 13.332349 -11.782915 -1.424568 17.165329 -28.005845 3.508214 10.437034 -7.231692 -42.571595 -1.904005 3.056834 15.985356 -38.763880 4.278835 -18.457737 -1.406420 24.703726 -5.626146 -2.834478 1.914641 32.324730 7.630012 7.286473 15.623311 29.155814 42.766119 22.781294 8.192543 8.290348 
-0.750703 0.997560 0.809055 64.365462 -4.268018 104.794984 5.769050 -15.541020 -60.021666 -9.581568 5.394377 70.537782 7.561545 24.562001 -37.228522 0.000000 -0.000000 0.000000 -8.393401 3.517954 -65.413501 3.259780 -7.177995 70.166197 -2.934133 -15.815854 -37.621457 0.000000 -0.000000 0.000000 1.903309 -3.346508 32.450414 -1.843894 -1.620842 -15.283313 1.353420 -2.205425 -4.805573 -15.491400 15.588412 -13.762475 -2.465550 19.619593 -28.899715 3.996295 12.344166 -7.572927 -38.417805 -1.380787 -1.082263 22.041114 -25.938583 -8.799569 -7.370027 -7.246472 14.379321 -4.786826 -6.182400 0.343872 27.436689 10.016838 -0.562807 2.972931 20.246801 21.747629 7.535201 7.579005 8.635771 
-0.750849 0.998864 0.808300 64.311276 -4.035653 105.276814 6.025480 -15.393005 -60.598753 -9.417690 5.027508 70.509571 7.275512 24.544743 -36.874716 0.000000 -0.000000 0.000000 -8.342270 3.288744 -65.746161 3.718643 -7.241406 69.314324 -3.119101 -15.741259 -36.973196 0.000000 -0.000000 0.000000 1.794733 -3.388701 33.600363 -0.970160 -2.005399 -17.655698 2.355040 -2.455802 -4.309240 -17.411600 16.997767 -15.135446 -3.018436 22.108337 -29.132099 4.040066 13.069127 -7.747366 -34.119855 -1.437655 -6.433297 25.720853 -14.239688 -21.525772 2.878399 -10.058884 6.741563 -3.361391 -7.742444 -1.338475 20.946173 12.688841 -9.967026 -6.988164 13.378356 2.650083 2.386033 7.587182 5.297911 
-0.751276 0.999819 0.808334 64.027593 -3.837347 105.515014 5.896039 -14.908572 -60.641063 -9.664607 4.422595 70.336777 7.057995 24.903279 -36.969637 0.000000 -0.000000 0.000000 -7.879580 3.163245 -65.962491 4.468535 -6.718285 68.769429 -2.933520 -16.119151 -36.179574 0.000000 -0.000000 0.000000 1.907414 -3.392472 34.503486 -0.589589 -2.119039 -18.323703 2.882528 -2.384425 -4.987583 -18.397537 17.690126 -16.021741 -3.007819 23.491091 -28.501951 2.421697 12.358590 -8.664376 -25.167046 0.752931 -9.135766 23.712406 -8.834021 -19.880295 1.350495 -12.144669 9.777635 -2.117137 -6.973491 -2.608170 11.999999 12.896509 -16.076305 -9.512666 8.484924 -5.264115 2.605180 8.387780 5.375632 
-0.751434 1.000787 0.808695 63.722652 -3.625523 105.680015 5.757848 -14.376425 -60.609280 -9.948286 3.875239 70.195047 6.913249 25.395462 -36.747875 0.000000 -0.000000 0.000000 -7.502730 3.036700 -65.970254 5.476913 -6.339875 68.016727 -2.965567 -16.709265 -35.718258 0.000000 -0.000000 0.000000 2.337026 -3.288822 34.544269 -0.737209 -1.972075 -18.026652 3.093228 -2.044944 -5.180892 -19.475961 17.856825 -16.234017 -3.597580 24.230396 -29.403362 3.430924 10.652604 -7.522561 -20.104238 3.682957 -10.405068 20.747852 -5.977835 -20.426037 -1.330256 -10.738944 8.748961 -4.891847 -5.541436 -2.181627 8.284170 11.123510 -19.302079 -9.635759 5.371699 -10.423795 1.511988 7.958256 2.789952 
-0.751122 1.001094 0.809717 63.785119 -3.769709 105.472246 5.227585 -14.241507 -60.131879 -10.335512 3.320276 69.752848 6.684495 25.709926 -36.515847 0.000000 -0.000000 0.000000 -7.247788 2.439959 -65.481669 6.201841 -5.935293 67.395435 -2.711838 -17.118004 -35.589918 0.000000 -0.000000 0.000000 2.700498 -3.254119 35.146895 -1.031629 -2.062514 -18.675861 3.384252 -2.037270 -4.905984 -20.646176 17.988613 -15.954691 -4.036621 25.259322 -30.652141 3.955823 8.722099 -7.448570 -15.596094 6.301351 -12.222386 17.213630 -4.204327 -22.863106 2.113232 -13.238863 7.355381 -7.042481 -3.997096 -2.245624 4.127784 8.507796 -20.495816 -6.522716 4.207767 -8.322529 -0.236209 9.887063 4.559585 
